<svg xmlns="http://www.w3.org/2000/svg" viewBox="0 0 400 400" fill="none" stroke-linecap="round" stroke-linejoin="round"><path d="M70 180 L 110 80 C 114 70 122 64 134 64 L 316 64 C 324 64 330 70 330 78 L 330 180" fill="none" stroke="#23272B" stroke-width="5"/><path d="M92 172 L 124 92 C 126 86 130 84 136 84 L 306 84 C 310 84 312 86 312 90 L 312 172 Z" fill="#FFFFFF" stroke="#8B9196" stroke-width="3"/><path d="M70 180 L 330 180 L 330 310 C 330 326 318 336 302 336 L 96 336 C 80 336 70 326 70 310 Z" fill="#ECEEF0" stroke="#23272B" stroke-width="5"/><rect x="234" y="204" width="58" height="14" rx="7" fill="#FFFFFF" stroke="#23272B" stroke-width="4"/><path d="M76 244 L 324 236" fill="none" stroke="#8B9196" stroke-width="3"/></svg>
